<svg width="39" height="35" viewBox="0 0 39 35" fill="none" xmlns="http://www.w3.org/2000/svg">
<path d="M25 24.8889C29.0808 24.8889 32.3889 20.0138 32.3889 14C32.3889 7.98624 29.0808 3.11111 25 3.11111C20.9192 3.11111 17.6111 7.98624 17.6111 14C17.6111 20.0138 20.9192 24.8889 25 24.8889Z" fill="#A57939"/>
<path fill-rule="evenodd" clip-rule="evenodd" d="M25 24.8889C24.9942 24.8889 24.9926 24.8803 24.9984 24.8788C28.2904 23.7767 30.7524 19.3332 30.7524 14.0198C30.7524 8.70334 28.2873 4.25795 24.993 3.15895C24.9658 3.15039 24.9716 3.11111 25 3.11111C29.0806 3.11111 32.3889 7.98623 32.3889 14C32.3889 20.0138 29.0806 24.8889 25 24.8889Z" fill="#6A462F"/>
<path d="M24.9984 24.8788L25.1217 25.2474L24.9984 24.8788ZM30.3635 14.0195C30.3635 16.6184 29.7608 18.9933 28.7672 20.8444C27.7716 22.6991 26.3996 23.9991 24.8748 24.5093L25.1217 25.2471C26.8888 24.6552 28.3942 23.1828 29.4524 21.212C30.5129 19.2372 31.1413 16.7339 31.1413 14.0195H30.3635ZM24.8697 3.52723C26.3957 4.03667 27.7685 5.33634 28.7656 7.19134C29.7604 9.04245 30.3635 11.4186 30.3635 14.0195H31.1413C31.1413 11.3035 30.5121 8.79862 29.4508 6.82345C28.3915 4.85178 26.8845 3.37984 25.1159 2.7899L24.8697 3.52762V3.52723ZM25 3.50001C26.8733 3.50001 28.6135 4.61884 29.9031 6.51856C31.1907 8.41673 32 11.0608 32 14H32.7778C32.7778 10.9258 31.9327 8.12506 30.5467 6.08223C29.1611 4.04095 27.2077 2.72223 25 2.72223V3.50001ZM32 14C32 16.9396 31.1911 19.5833 29.9031 21.4811C28.6135 23.3812 26.8733 24.5 25 24.5V25.2778C27.2077 25.2778 29.1615 23.9587 30.5467 21.9178C31.9327 19.8753 32.7778 17.075 32.7778 14H32ZM25.1159 2.79028C25.1973 2.81828 25.2662 2.87416 25.3104 2.94805C25.3545 3.02193 25.3712 3.10906 25.3573 3.19402C25.3434 3.27899 25.2999 3.3563 25.2345 3.4123C25.1692 3.4683 25.0861 3.49936 25 3.50001V2.72223C24.901 2.7221 24.8053 2.75759 24.7303 2.8222C24.6554 2.88682 24.6061 2.97626 24.5917 3.07417C24.566 3.24373 24.6515 3.45528 24.8697 3.52801L25.1159 2.79028ZM24.8748 24.5097C24.4373 24.6563 24.5675 25.2778 25 25.2778V24.5C25.42 24.5 25.5479 25.1047 25.1217 25.2474L24.8748 24.5097Z" fill="#6A462F"/>
<path fill-rule="evenodd" clip-rule="evenodd" d="M25 23.7222C25 23.7222 22.6667 19.3694 22.6667 14C22.6667 8.64888 24.9844 4.30733 25 4.27777C24.9887 4.29877 23.8333 6.46722 23.8333 9.13888C23.8333 11.8234 25 14 25 14C25 14 26.1667 16.1762 26.1667 18.8611C26.1667 21.5456 25 23.7222 25 23.7222Z" fill="black"/>
<path d="M25 23.7222L24.6574 23.9058C24.6906 23.9677 24.7401 24.0195 24.8004 24.0555C24.8607 24.0916 24.9297 24.1107 25 24.1107C25.0703 24.1107 25.1393 24.0916 25.1996 24.0555C25.2599 24.0195 25.3093 23.9677 25.3426 23.9058L25 23.7222ZM25 4.27777L25.343 4.46094C25.3916 4.36997 25.4021 4.26341 25.3722 4.16469C25.3422 4.06598 25.2743 3.98321 25.1834 3.93458C25.0924 3.88595 24.9858 3.87545 24.8871 3.90538C24.7884 3.93532 24.7056 4.00325 24.657 4.09422L25 4.27777ZM25 14L25.3426 13.8161L25 14ZM22.2778 14C22.2778 16.7386 22.8724 19.2119 23.4639 20.9969C23.7014 21.7162 23.9738 22.4235 24.2802 23.1163C24.3901 23.3636 24.5062 23.6082 24.6282 23.8498L24.6492 23.8902L24.6547 23.9011L24.6566 23.9042V23.9054H24.657L25 23.7222C25.3426 23.5383 25.343 23.5383 25.343 23.5387V23.5383L25.3418 23.5367L25.3375 23.5286L25.3197 23.4936C25.3033 23.4624 25.2796 23.4154 25.2485 23.3528C25.159 23.1703 25.073 22.986 24.9907 22.8002C24.6948 22.1307 24.4318 21.4473 24.2024 20.7523C23.6276 19.0182 23.0555 16.6304 23.0555 14H22.2778ZM24.657 4.09422C24.6321 4.14088 22.2778 8.55088 22.2778 14H23.0555C23.0555 8.74611 25.336 4.47416 25.343 4.46133L24.657 4.09422ZM24.2222 9.13888C24.2222 7.85672 24.4999 6.68927 24.7818 5.83605C25.063 4.98438 25.3445 4.45783 25.343 4.46094L24.657 4.0946C24.6368 4.13194 23.4444 6.36961 23.4444 9.13849H24.2222V9.13888ZM25 14C25.3426 13.8161 25.343 13.8161 25.343 13.8164V13.8161L25.341 13.8126C25.3265 13.785 25.3123 13.7573 25.2987 13.7293C25.2687 13.6687 25.2255 13.5777 25.173 13.4598C25.0277 13.131 24.8984 12.7952 24.7857 12.4538C24.5026 11.5994 24.2222 10.4269 24.2222 9.13888H23.4444C23.4444 10.535 23.7474 11.7931 24.0472 12.6984C24.1681 13.064 24.3067 13.4235 24.4625 13.7756C24.519 13.9028 24.5787 14.0286 24.6414 14.1528L24.6523 14.1746C24.6539 14.1769 24.6547 14.1793 24.6558 14.1804L24.6566 14.1824L24.657 14.1832L25 14ZM25 14L24.657 14.1836L24.6589 14.1874C24.6735 14.2149 24.6876 14.2427 24.7013 14.2707C24.7313 14.3309 24.7744 14.4219 24.8269 14.5398C24.9319 14.7762 25.0731 15.12 25.2143 15.5458C25.4974 16.4002 25.7778 17.5731 25.7778 18.8611H26.5555C26.5555 17.4646 26.2526 16.2066 25.9528 15.3012C25.8319 14.9356 25.6933 14.5761 25.5374 14.224C25.4777 14.0895 25.4144 13.9566 25.3477 13.8254L25.3442 13.8192L25.3434 13.8172L25.343 13.8164L25 14ZM25.7778 18.8611C25.7778 20.1491 25.4974 21.3216 25.2139 22.176C25.1013 22.5174 24.9722 22.8532 24.8269 23.1821C24.774 23.301 24.7179 23.4187 24.6589 23.5348L24.6574 23.5383L25 23.7222L25.343 23.9058V23.9054V23.9046C25.3438 23.9042 25.3438 23.9034 25.3442 23.9027C25.3453 23.9015 25.3461 23.8992 25.3477 23.8968L25.3589 23.8751C25.3683 23.8564 25.3823 23.8296 25.399 23.7953C25.4328 23.7261 25.4807 23.6262 25.5374 23.4982C25.6932 23.1461 25.8316 22.7866 25.9524 22.421C26.2526 21.5149 26.5555 20.2572 26.5555 18.8611H25.7778Z" fill="black"/>
<path d="M25 24.8889C29.0808 24.8889 32.3889 20.0138 32.3889 14C32.3889 7.98624 29.0808 3.11111 25 3.11111C20.9192 3.11111 17.6111 7.98624 17.6111 14C17.6111 20.0138 20.9192 24.8889 25 24.8889Z" fill="#CD713E"/>
<path d="M25 14C25 14 23.8333 11.8238 23.8333 9.1389C23.8333 6.45401 25 4.27779 25 4.27779" fill="#0C0F14"/>
<path d="M25 14C25 14 26.1667 16.1762 26.1667 18.8611C26.1667 21.546 25 23.7222 25 23.7222" fill="#0C0F14"/>
<g clip-path="url(#clip0_338_2)">
<path d="M19.6763 26.4146C22.3978 24.7193 22.5787 20.0938 20.0804 16.0831C17.5821 12.0725 13.3506 10.1955 10.6291 11.8908C7.90765 13.5861 7.72672 18.2116 10.225 22.2223C12.7233 26.2329 16.9548 28.1098 19.6763 26.4146Z" fill="#A57939"/>
<path fill-rule="evenodd" clip-rule="evenodd" d="M19.6763 26.4146C19.6724 26.417 19.6678 26.4119 19.6711 26.4085C21.4086 24.3059 21.2046 20.3197 18.9973 16.7762C16.7887 13.2306 13.2979 11.29 10.6444 11.9256C10.6226 11.9312 10.6102 11.9026 10.6292 11.8908C13.3505 10.1956 17.5821 12.0725 20.0804 16.0831C22.5787 20.0938 22.3977 24.7194 19.6763 26.4146Z" fill="#6A462F"/>
<path d="M19.6711 26.4085L19.9064 26.6031L19.6711 26.4085ZM18.7378 16.9375C19.8175 18.6707 20.4021 20.505 20.5085 22.1523C20.615 23.8027 20.2401 25.2397 19.4351 26.2135L19.9063 26.6029C20.8389 25.474 21.2312 23.8667 21.1181 22.1127C21.005 20.3552 20.3842 18.4247 19.2565 16.6144L18.7378 16.9375ZM10.7151 12.2224C11.9445 11.9283 13.3999 12.2247 14.8355 13.0476C16.2679 13.8689 17.6573 15.2029 18.7378 16.9375L19.2565 16.6144C18.1282 14.803 16.668 13.394 15.1397 12.5176C13.6141 11.6428 11.9976 11.2871 10.573 11.6285L10.7153 12.2227L10.7151 12.2224ZM10.7907 12.1502C12.04 11.372 13.6654 11.3952 15.3146 12.1264C16.9619 12.8574 18.6 14.2845 19.8211 16.2447L20.3398 15.9216C19.0627 13.8714 17.3356 12.3546 15.5626 11.568C13.7905 10.7823 11.9399 10.7143 10.4676 11.6315L10.7907 12.1502ZM19.8211 16.2447C21.0423 18.2051 21.6011 20.3042 21.5305 22.105C21.4598 23.9079 20.764 25.377 19.5147 26.1552L19.8378 26.6739C21.3102 25.7568 22.0652 24.0654 22.1411 22.1288C22.217 20.1909 21.6172 17.9723 20.3398 15.9216L19.8211 16.2447ZM10.5732 11.6287C10.6391 11.6136 10.7082 11.6222 10.7684 11.6531C10.8285 11.6841 10.8758 11.7353 10.9019 11.7977C10.9279 11.8601 10.931 11.9297 10.9107 11.9942C10.8903 12.0587 10.8478 12.114 10.7907 12.1502L10.4676 11.6315C10.4015 11.6725 10.3524 11.7359 10.3293 11.8102C10.3061 11.8844 10.3105 11.9645 10.3415 12.0358C10.3948 12.1596 10.5397 12.2651 10.7155 12.223L10.5732 11.6287ZM19.4353 26.2137C19.2044 26.4932 19.5494 26.8536 19.8378 26.6739L19.5147 26.1552C19.7948 25.9807 20.1314 26.3309 19.9064 26.6031L19.4353 26.2137Z" fill="#6A462F"/>
<path fill-rule="evenodd" clip-rule="evenodd" d="M19.1916 25.6365C19.1916 25.6365 15.8272 23.7029 13.5966 20.122C11.3736 16.5533 11.1157 12.6951 11.1138 12.6689C11.115 12.6876 11.2453 14.6137 12.3552 16.3955C13.4704 18.1858 15.1527 19.1527 15.1527 19.1527C15.1527 19.1527 16.8348 20.1194 17.9502 21.9099C19.0654 23.7002 19.1916 25.6365 19.1916 25.6365Z" fill="#131218"/>
<path d="M19.1916 25.6365L19.0394 25.9013C19.0873 25.9287 19.1418 25.9427 19.197 25.9417C19.2522 25.9407 19.3061 25.9248 19.353 25.8956C19.3999 25.8664 19.438 25.825 19.4632 25.7759C19.4885 25.7268 19.4999 25.6717 19.4964 25.6166L19.1916 25.6365ZM11.1138 12.6689L11.4187 12.6485C11.4133 12.5677 11.376 12.4922 11.3151 12.4388C11.2541 12.3854 11.1744 12.3585 11.0935 12.3638C11.0127 12.3692 10.9372 12.4064 10.8838 12.4674C10.8304 12.5284 10.8035 12.6081 10.8088 12.689L11.1138 12.6689ZM15.1527 19.1527L15.3048 18.8877L15.1527 19.1527ZM13.3372 20.2836C14.4749 22.1099 15.899 23.5124 17.035 24.4571C17.4922 24.8382 17.9677 25.1967 18.4599 25.5315C18.6359 25.6507 18.8149 25.7656 18.9967 25.876L19.0275 25.8943L19.0356 25.8993L19.0382 25.9005L19.0387 25.9013L19.039 25.9012L19.1916 25.6365C19.3437 25.3715 19.344 25.3713 19.3441 25.3716L19.344 25.3713L19.3425 25.3708L19.3363 25.3671L19.3098 25.3512C19.286 25.3372 19.2506 25.3157 19.2039 25.2869C19.0683 25.2023 18.9345 25.1152 18.8023 25.0255C18.327 24.7019 17.8676 24.3554 17.4259 23.9872C16.3222 23.0695 14.9487 21.7147 13.856 19.9605L13.3372 20.2836ZM10.8088 12.689C10.8116 12.7304 11.0735 16.6495 13.3372 20.2836L13.856 19.9605C11.6733 16.4566 11.4195 12.6603 11.4188 12.6488L10.8088 12.689ZM12.6146 16.2339C12.0819 15.3788 11.7821 14.4849 11.6157 13.7987C11.4494 13.1139 11.4184 12.6458 11.4187 12.6485L10.809 12.6892C10.811 12.7225 10.9454 14.7102 12.0957 16.5567L12.6144 16.2336L12.6146 16.2339ZM15.1527 19.1527C15.3048 18.8877 15.305 18.8875 15.3052 18.8878L15.305 18.8875L15.3023 18.886C15.2811 18.8737 15.2602 18.8611 15.2395 18.8481C15.1943 18.8201 15.1277 18.7773 15.0437 18.7206C14.8102 18.5616 14.5845 18.3914 14.3675 18.2105C13.8237 17.7583 13.1496 17.0929 12.6146 16.2339L12.0959 16.557C12.6758 17.4881 13.4005 18.2012 13.9766 18.6804C14.2091 18.8741 14.4509 19.0562 14.7011 19.2263C14.7916 19.2877 14.8836 19.3468 14.9771 19.4036L14.9934 19.4136C14.9954 19.4145 14.9969 19.4157 14.9982 19.416L14.9995 19.417L15.0001 19.4173L15.1527 19.1527ZM15.1527 19.1527L15.0002 19.4176L15.0031 19.4194C15.0243 19.4317 15.0452 19.4443 15.066 19.4573C15.111 19.485 15.1776 19.5278 15.2615 19.5846C15.4298 19.6986 15.6668 19.8693 15.9378 20.0946C16.4816 20.5468 17.1558 21.2125 17.6909 22.0715L18.2096 21.7484C17.6294 20.817 16.9048 20.1039 16.3287 19.6247C16.0962 19.4311 15.8544 19.2489 15.6042 19.0788C15.5085 19.0139 15.411 18.9516 15.312 18.8918L15.3071 18.8891L15.3058 18.8881L15.3052 18.8878L15.1527 19.1527ZM17.6909 22.0715C18.2259 22.9305 18.526 23.8289 18.6919 24.5165C18.7587 24.7909 18.812 25.0685 18.8518 25.3482C18.8659 25.4495 18.8774 25.5512 18.8863 25.6532L18.8867 25.6562L19.1916 25.6365L19.4966 25.6164L19.4965 25.6162L19.4961 25.6157C19.4965 25.6151 19.4962 25.6146 19.4961 25.6139C19.4964 25.6126 19.496 25.6107 19.496 25.6085L19.4945 25.5893C19.493 25.573 19.4912 25.5493 19.4881 25.5195C19.4819 25.4593 19.4723 25.3728 19.457 25.2638C19.4146 24.9643 19.3576 24.667 19.2862 24.3731C19.11 23.644 18.7896 22.6795 18.2096 21.7484L17.6909 22.0715Z" fill="#131218"/>
<path d="M19.6763 26.4146C22.3978 24.7193 22.5787 20.0938 20.0804 16.0831C17.5821 12.0725 13.3506 10.1955 10.6291 11.8908C7.90765 13.5861 7.72672 18.2116 10.225 22.2223C12.7233 26.2329 16.9548 28.1098 19.6763 26.4146Z" fill="#CD713E"/>
<path d="M15.1527 19.1527C15.1527 19.1527 13.4706 18.186 12.3552 16.3955C11.2398 14.6049 11.1138 12.6689 11.1138 12.6689" fill="#0A0808"/>
<path d="M15.1527 19.1527C15.1527 19.1527 16.8349 20.1194 17.9502 21.9099C19.0656 23.7005 19.1916 25.6365 19.1916 25.6365" fill="#0A0808"/>
</g>
<defs>
<clipPath id="clip0_338_2">
<rect width="22" height="22" fill="white" transform="translate(0 15.632) rotate(-31.9196)"/>
</clipPath>
</defs>
</svg>
