<svg width="14" height="19" viewBox="0 0 14 19" fill="none" xmlns="http://www.w3.org/2000/svg">
<path d="M10.5938 3.73437C9.628 2.61965 8.54345 1.61369 7.35938 0.734368C7.25371 0.661464 7.12837 0.622421 7 0.622421C6.87163 0.622421 6.74629 0.661464 6.64062 0.734368C5.45655 1.61369 4.372 2.61965 3.40625 3.73437C1.25781 6.1953 0.125 8.79687 0.125 11.25C0.125 13.0734 0.849328 14.822 2.13864 16.1114C3.42795 17.4007 5.17664 18.125 7 18.125C8.82336 18.125 10.572 17.4007 11.8614 16.1114C13.1507 14.822 13.875 13.0734 13.875 11.25C13.875 8.79687 12.7422 6.1953 10.5938 3.73437ZM11.3125 11.9844C11.161 12.8775 10.735 13.7012 10.0937 14.3411C9.45247 14.9809 8.62782 15.4051 7.73437 15.5547H7.63281C7.47534 15.5555 7.32337 15.4968 7.2073 15.3903C7.09123 15.2839 7.01963 15.1376 7.00679 14.9806C6.99396 14.8237 7.04085 14.6676 7.13809 14.5438C7.23532 14.4199 7.37574 14.3373 7.53125 14.3125C8.16806 14.2059 8.75571 13.9032 9.21227 13.4466C9.66883 12.9901 9.97151 12.4024 10.0781 11.7656C10.0923 11.6845 10.1223 11.6069 10.1665 11.5374C10.2108 11.4679 10.2683 11.4078 10.3358 11.3606C10.4033 11.3134 10.4795 11.28 10.56 11.2624C10.6404 11.2448 10.7236 11.2432 10.8047 11.2578C10.8863 11.271 10.9645 11.3004 11.0345 11.3443C11.1046 11.3882 11.1651 11.4458 11.2124 11.5136C11.2598 11.5813 11.2931 11.6579 11.3102 11.7388C11.3274 11.8197 11.3282 11.9032 11.3125 11.9844Z" fill="#CD713E"/>
</svg>
